<svg width="156" height="18" viewBox="0 0 156 18" fill="none" xmlns="http://www.w3.org/2000/svg">
<g clip-path="url(#clip0_2058_224)">
<path d="M6.77219 17.776C5.35634 17.776 4.25599 17.3881 3.47113 16.6124C2.70164 15.8211 2.31691 14.7118 2.31691 13.2844V7.69892H0.146973V4.97601H0.377817C0.9934 4.97601 1.47048 4.8131 1.80905 4.48729C2.14761 4.16147 2.31691 3.68825 2.31691 3.06765V2.09019H5.34096V4.97601H8.22651V7.69892H5.34096V13.1215C5.34096 13.5404 5.41021 13.8972 5.54872 14.192C5.70261 14.4868 5.93345 14.7118 6.24125 14.8669C6.56443 15.0221 6.97225 15.0996 7.46472 15.0996C7.57245 15.0996 7.69557 15.0919 7.83408 15.0764C7.98797 15.0609 8.13417 15.0453 8.27268 15.0298V17.6364C8.05722 17.6674 7.81099 17.6984 7.53398 17.7295C7.25697 17.7605 7.00304 17.776 6.77219 17.776ZM10.6985 17.6364V4.97601H13.5379V7.79201L13.3071 7.3731C13.5995 6.42668 14.0535 5.76729 14.669 5.39492C15.3 5.02256 16.0541 4.83638 16.9313 4.83638H17.67V7.53601H16.585C15.7232 7.53601 15.0307 7.80752 14.5074 8.35056C13.9842 8.87807 13.7226 9.62279 13.7226 10.5847V17.6364H10.6985ZM23.257 17.9156C22.3798 17.9156 21.618 17.7682 20.9716 17.4735C20.3253 17.1787 19.8252 16.7598 19.4711 16.2167C19.1171 15.6582 18.9402 15.0143 18.9402 14.2851C18.9402 13.5869 19.094 12.9663 19.4019 12.4233C19.7097 11.8647 20.1867 11.3993 20.8331 11.0269C21.4795 10.6546 22.2952 10.3908 23.2801 10.2356L27.3891 9.56074V11.888L23.8572 12.4931C23.257 12.6017 22.8106 12.7956 22.5183 13.0749C22.2259 13.3542 22.0797 13.7188 22.0797 14.1687C22.0797 14.6032 22.2413 14.9523 22.5644 15.216C22.903 15.4643 23.3185 15.5884 23.811 15.5884C24.442 15.5884 24.9961 15.4565 25.4731 15.1927C25.9656 14.9135 26.3425 14.5333 26.6042 14.0524C26.8812 13.5714 27.0197 13.0439 27.0197 12.4698V9.21165C27.0197 8.66861 26.8042 8.21869 26.3734 7.86183C25.9579 7.48947 25.4038 7.30329 24.7113 7.30329C24.0649 7.30329 23.4878 7.4817 22.98 7.83856C22.4874 8.17989 22.1258 8.63759 21.895 9.21165L19.425 8.00147C19.6711 7.33432 20.056 6.76025 20.5792 6.27929C21.1179 5.78279 21.7487 5.39492 22.4721 5.11565C23.1955 4.83638 23.9803 4.69674 24.8267 4.69674C25.8578 4.69674 26.7658 4.89069 27.5507 5.27856C28.3355 5.65092 28.9435 6.17843 29.3743 6.8611C29.8207 7.52825 30.0438 8.31178 30.0438 9.21165V17.6364H27.1813V15.472L27.8277 15.4255C27.5045 15.9685 27.1198 16.4262 26.6735 16.7986C26.2271 17.1554 25.7192 17.4347 25.1499 17.6364C24.5805 17.8226 23.9495 17.9156 23.257 17.9156ZM38.7946 17.9156C37.5789 17.9156 36.4939 17.6286 35.5397 17.0546C34.5855 16.465 33.8314 15.666 33.2774 14.6575C32.7234 13.649 32.4464 12.5319 32.4464 11.3062C32.4464 10.065 32.7234 8.94789 33.2774 7.95492C33.8314 6.96196 34.5855 6.17069 35.5397 5.5811C36.5092 4.99152 37.5864 4.69674 38.7715 4.69674C39.7257 4.69674 40.5721 4.89069 41.3108 5.27856C42.0648 5.65092 42.6574 6.17843 43.0883 6.8611L42.6266 7.48947V0.0189209H45.6506V17.6364H42.7882V15.1927L43.1114 15.7978C42.6805 16.4805 42.0803 17.008 41.3108 17.3804C40.5412 17.7372 39.7026 17.9156 38.7946 17.9156ZM39.1178 15.1229C39.8103 15.1229 40.4182 14.96 40.9414 14.6342C41.4646 14.3084 41.8726 13.8584 42.1649 13.2844C42.4727 12.7103 42.6266 12.0509 42.6266 11.3062C42.6266 10.577 42.4727 9.92534 42.1649 9.35128C41.8726 8.7617 41.4646 8.30401 40.9414 7.97819C40.4182 7.65238 39.8103 7.48947 39.1178 7.48947C38.4406 7.48947 37.8328 7.66014 37.2941 8.00147C36.7554 8.32729 36.3323 8.77723 36.0244 9.35128C35.7321 9.90983 35.5858 10.5615 35.5858 11.3062C35.5858 12.0509 35.7321 12.7103 36.0244 13.2844C36.3323 13.8584 36.7554 14.3084 37.2941 14.6342C37.8328 14.96 38.4406 15.1229 39.1178 15.1229ZM54.5352 17.9156C53.2425 17.9156 52.1114 17.6209 51.1418 17.0313C50.1723 16.4417 49.4183 15.6427 48.8796 14.6342C48.3409 13.6257 48.0716 12.5086 48.0716 11.2829C48.0716 10.0107 48.3409 8.88583 48.8796 7.90838C49.4336 6.91541 50.18 6.13189 51.1188 5.55783C52.073 4.98378 53.1348 4.69674 54.3044 4.69674C55.2893 4.69674 56.1512 4.85965 56.8899 5.18547C57.6439 5.51129 58.2827 5.96123 58.8059 6.53529C59.329 7.10934 59.7292 7.76874 60.0062 8.51347C60.2833 9.24269 60.4218 10.034 60.4218 10.8873C60.4218 11.1045 60.4064 11.3295 60.3756 11.5622C60.3603 11.7949 60.3217 11.9966 60.2602 12.1673H50.5647V9.84001H58.5519L57.1207 10.9338C57.2592 10.2201 57.2208 9.58401 57.0053 9.02547C56.8053 8.46692 56.4666 8.02474 55.9896 7.69892C55.5279 7.3731 54.9661 7.21019 54.3044 7.21019C53.6734 7.21019 53.1118 7.3731 52.6192 7.69892C52.1267 8.00923 51.7498 8.47469 51.4881 9.09529C51.2419 9.70038 51.1496 10.4373 51.2111 11.3062C51.1496 12.082 51.2495 12.7724 51.5112 13.3775C51.7882 13.967 52.1884 14.4247 52.7116 14.7506C53.2503 15.0764 53.8658 15.2393 54.5583 15.2393C55.2509 15.2393 55.8357 15.0919 56.3127 14.7971C56.8053 14.5023 57.1899 14.1067 57.467 13.6102L59.9139 14.8204C59.6677 15.4255 59.2829 15.9607 58.7597 16.4262C58.2365 16.8916 57.6132 17.2563 56.8899 17.52C56.182 17.7838 55.3971 17.9156 54.5352 17.9156ZM64.2839 17.6364V7.69892H62.0678V4.97601H64.2839V4.5571C64.2839 3.59516 64.4763 2.78061 64.861 2.11347C65.2612 1.4308 65.8152 0.911042 66.5231 0.554194C67.2309 0.197345 68.0697 0.0189209 69.0393 0.0189209C69.224 0.0189209 69.424 0.034436 69.6395 0.0654658C69.8703 0.0809816 70.0627 0.104255 70.2166 0.135285V2.7651C70.0627 2.73407 69.9165 2.71856 69.778 2.71856C69.6548 2.70305 69.5394 2.69529 69.4317 2.69529C68.7545 2.69529 68.2313 2.85043 67.862 3.16074C67.4926 3.45552 67.3079 3.92098 67.3079 4.5571V4.97601H72.802V7.69892H67.3079V17.6364H64.2839ZM72.1787 17.6364V0.0189209H75.2259V17.6364H72.1787ZM84.2797 17.9156C83.0484 17.9156 81.9251 17.6286 80.9093 17.0546C79.909 16.4805 79.1088 15.697 78.5086 14.704C77.9237 13.711 77.6314 12.5784 77.6314 11.3062C77.6314 10.034 77.9237 8.90134 78.5086 7.90838C79.1088 6.91541 79.909 6.13189 80.9093 5.55783C81.9097 4.98378 83.0331 4.69674 84.2797 4.69674C85.5109 4.69674 86.6265 4.98378 87.6269 5.55783C88.6273 6.13189 89.4197 6.91541 90.0046 7.90838C90.6048 8.88583 90.9049 10.0184 90.9049 11.3062C90.9049 12.5784 90.6048 13.711 90.0046 14.704C89.4044 15.697 88.6042 16.4805 87.6038 17.0546C86.6034 17.6286 85.4954 17.9156 84.2797 17.9156ZM84.2797 15.1229C84.9569 15.1229 85.5493 14.96 86.0572 14.6342C86.5803 14.3084 86.9883 13.8584 87.2806 13.2844C87.5885 12.6948 87.7423 12.0354 87.7423 11.3062C87.7423 10.5615 87.5885 9.90983 87.2806 9.35128C86.9883 8.77723 86.5803 8.32729 86.0572 8.00147C85.5493 7.66014 84.9569 7.48947 84.2797 7.48947C83.5871 7.48947 82.9792 7.66014 82.456 8.00147C81.9328 8.32729 81.5173 8.77723 81.2094 9.35128C80.9171 9.90983 80.7708 10.5615 80.7708 11.3062C80.7708 12.0354 80.9171 12.6948 81.2094 13.2844C81.5173 13.8584 81.9328 14.3084 82.456 14.6342C82.9792 14.96 83.5871 15.1229 84.2797 15.1229ZM96.2507 17.6364L91.9339 4.97601H95.1196L98.2822 14.5876L97.1741 14.5644L100.544 4.97601H103.222L106.569 14.5644L105.461 14.5876L108.624 4.97601H111.81L107.493 17.6364H104.792L101.375 7.60583H102.391L98.9285 17.6364H96.2507ZM122.953 17.6364V7.69892H120.736V4.97601H122.953V4.5571C122.953 3.59516 123.145 2.78061 123.53 2.11347C123.93 1.4308 124.484 0.911042 125.192 0.554194C125.9 0.197345 126.738 0.0189209 127.708 0.0189209C127.893 0.0189209 128.093 0.034436 128.308 0.0654658C128.539 0.0809816 128.731 0.104255 128.885 0.135285V2.7651C128.731 2.73407 128.585 2.71856 128.447 2.71856C128.323 2.70305 128.208 2.69529 128.1 2.69529C127.423 2.69529 126.9 2.85043 126.531 3.16074C126.161 3.45552 125.977 3.92098 125.977 4.5571V4.97601H128.77V7.69892H125.977V17.6364H122.953ZM135.47 17.9156C134.5 17.9156 133.654 17.6984 132.931 17.264C132.223 16.8296 131.676 16.2245 131.292 15.4487C130.922 14.673 130.738 13.7653 130.738 12.7258V4.97601H133.762V12.4698C133.762 12.9973 133.862 13.4628 134.062 13.8662C134.277 14.2541 134.577 14.5644 134.962 14.7971C135.362 15.0143 135.809 15.1229 136.301 15.1229C136.794 15.1229 137.232 15.0143 137.617 14.7971C138.002 14.5644 138.302 14.2463 138.517 13.8429C138.733 13.4395 138.84 12.9586 138.84 12.4V4.97601H141.864V17.6364H139.002V15.1462L139.256 15.5884C138.964 16.3641 138.479 16.946 137.802 17.3338C137.14 17.7217 136.363 17.9156 135.47 17.9156ZM144.791 17.6364V4.97601H147.63V7.46619L147.399 7.02401C147.692 6.26378 148.169 5.6897 148.831 5.30183C149.508 4.89843 150.293 4.69674 151.185 4.69674C152.109 4.69674 152.924 4.89843 153.632 5.30183C154.356 5.70523 154.917 6.27152 155.317 7.00074C155.718 7.71443 155.918 8.5445 155.918 9.49092V17.6364H152.894V10.2124C152.894 9.65383 152.786 9.17287 152.57 8.76947C152.355 8.36607 152.055 8.05578 151.67 7.83856C151.301 7.60583 150.862 7.48947 150.354 7.48947C149.862 7.48947 149.423 7.60583 149.038 7.83856C148.654 8.05578 148.354 8.36607 148.138 8.76947C147.923 9.17287 147.815 9.65383 147.815 10.2124V17.6364H144.791Z" fill="white"/>
<path d="M114.09 17.6364V14.3782H117.137V17.6364H114.09Z" fill="#AE51FF"/>
</g>
<defs>
<clipPath id="clip0_2058_224">
<rect width="156" height="18" fill="white"/>
</clipPath>
</defs>
</svg>
