<svg width="365" height="160" viewBox="0 0 365 160" fill="none" xmlns="http://www.w3.org/2000/svg">
<g clip-path="url(#clip0_2374_66)">
<rect width="365" height="160" rx="16" fill="#18181B"/>
<g filter="url(#filter0_f_2374_66)">
<circle cx="182.5" cy="-10.5" r="85.5" fill="#974EDF"/>
</g>
<path d="M27.728 51V33.12H39.608V36H30.992V40.584H39.128V43.464H30.992V48.12H39.608V51H27.728ZM40.5614 51L45.1214 44.448L40.5374 37.944H44.2334L47.8094 43.224H46.1534L49.7294 37.944H53.4014L48.8414 44.448L53.3774 51H49.7054L46.1774 45.744H47.7854L44.2574 51H40.5614ZM60.9395 51.288C59.6435 51.288 58.4755 50.992 57.4355 50.4C56.4115 49.792 55.6035 48.976 55.0115 47.952C54.4195 46.912 54.1235 45.744 54.1235 44.448C54.1235 43.152 54.4195 41.992 55.0115 40.968C55.6035 39.944 56.4115 39.136 57.4355 38.544C58.4755 37.952 59.6435 37.656 60.9395 37.656C61.8675 37.656 62.7315 37.824 63.5315 38.16C64.3315 38.48 65.0195 38.928 65.5955 39.504C66.1875 40.064 66.6115 40.736 66.8675 41.52L64.1075 42.72C63.8675 42.064 63.4595 41.536 62.8835 41.136C62.3235 40.736 61.6755 40.536 60.9395 40.536C60.2515 40.536 59.6355 40.704 59.0915 41.04C58.5635 41.376 58.1475 41.84 57.8435 42.432C57.5395 43.024 57.3875 43.704 57.3875 44.472C57.3875 45.24 57.5395 45.92 57.8435 46.512C58.1475 47.104 58.5635 47.568 59.0915 47.904C59.6355 48.24 60.2515 48.408 60.9395 48.408C61.6915 48.408 62.3475 48.208 62.9075 47.808C63.4675 47.408 63.8675 46.872 64.1075 46.2L66.8675 47.448C66.6115 48.184 66.1955 48.848 65.6195 49.44C65.0435 50.016 64.3555 50.472 63.5555 50.808C62.7555 51.128 61.8835 51.288 60.9395 51.288ZM69.2531 51V37.944H72.3971V51H69.2531ZM69.2531 36.48V33.12H72.3971V36.48H69.2531ZM81.2519 51.144C79.7799 51.144 78.6359 50.744 77.8199 49.944C77.0199 49.128 76.6199 47.984 76.6199 46.512V40.752H74.3639V37.944H74.6039C75.2439 37.944 75.7399 37.776 76.0919 37.44C76.4439 37.104 76.6199 36.616 76.6199 35.976V34.968H79.7639V37.944H82.7639V40.752H79.7639V46.344C79.7639 46.776 79.8359 47.144 79.9799 47.448C80.1399 47.752 80.3799 47.984 80.6999 48.144C81.0359 48.304 81.4599 48.384 81.9719 48.384C82.0839 48.384 82.2119 48.376 82.3559 48.36C82.5159 48.344 82.6679 48.328 82.8119 48.312V51C82.5879 51.032 82.3319 51.064 82.0439 51.096C81.7559 51.128 81.4919 51.144 81.2519 51.144ZM85.214 51V37.944H88.358V51H85.214ZM85.214 36.48V33.12H88.358V36.48H85.214ZM91.2609 51V37.944H94.2129V40.512L93.9729 40.056C94.2769 39.272 94.7729 38.68 95.4609 38.28C96.1649 37.864 96.9809 37.656 97.9089 37.656C98.8689 37.656 99.7169 37.864 100.453 38.28C101.205 38.696 101.789 39.28 102.205 40.032C102.621 40.768 102.829 41.624 102.829 42.6V51H99.6849V43.344C99.6849 42.768 99.5729 42.272 99.3489 41.856C99.1249 41.44 98.8129 41.12 98.4129 40.896C98.0289 40.656 97.5729 40.536 97.0449 40.536C96.5329 40.536 96.0769 40.656 95.6769 40.896C95.2769 41.12 94.9649 41.44 94.7409 41.856C94.5169 42.272 94.4049 42.768 94.4049 43.344V51H91.2609ZM111.823 56.28C110.847 56.28 109.943 56.12 109.111 55.8C108.279 55.48 107.559 55.032 106.951 54.456C106.359 53.896 105.927 53.232 105.655 52.464L108.583 51.36C108.775 51.968 109.151 52.456 109.711 52.824C110.287 53.208 110.991 53.4 111.823 53.4C112.463 53.4 113.023 53.28 113.503 53.04C113.999 52.8 114.383 52.448 114.655 51.984C114.927 51.536 115.063 50.992 115.063 50.352V47.376L115.663 48.096C115.215 48.88 114.615 49.472 113.863 49.872C113.111 50.272 112.255 50.472 111.295 50.472C110.079 50.472 108.991 50.192 108.031 49.632C107.071 49.072 106.319 48.304 105.775 47.328C105.231 46.352 104.959 45.256 104.959 44.04C104.959 42.808 105.231 41.712 105.775 40.752C106.319 39.792 107.063 39.04 108.007 38.496C108.951 37.936 110.023 37.656 111.223 37.656C112.199 37.656 113.055 37.864 113.791 38.28C114.543 38.68 115.167 39.264 115.663 40.032L115.231 40.824V37.944H118.207V50.352C118.207 51.488 117.927 52.504 117.367 53.4C116.823 54.296 116.071 55 115.111 55.512C114.167 56.024 113.071 56.28 111.823 56.28ZM111.679 47.568C112.351 47.568 112.935 47.424 113.431 47.136C113.943 46.832 114.343 46.416 114.631 45.888C114.919 45.36 115.063 44.752 115.063 44.064C115.063 43.392 114.911 42.792 114.607 42.264C114.319 41.72 113.919 41.296 113.407 40.992C112.911 40.688 112.335 40.536 111.679 40.536C111.023 40.536 110.431 40.688 109.903 40.992C109.375 41.296 108.959 41.72 108.655 42.264C108.367 42.792 108.223 43.392 108.223 44.064C108.223 44.736 108.367 45.336 108.655 45.864C108.959 46.392 109.367 46.808 109.879 47.112C110.407 47.416 111.007 47.568 111.679 47.568ZM130.065 51.288C129.057 51.288 128.177 51.064 127.425 50.616C126.689 50.168 126.121 49.544 125.721 48.744C125.337 47.944 125.145 47.008 125.145 45.936V37.944H128.289V45.672C128.289 46.216 128.393 46.696 128.601 47.112C128.825 47.512 129.137 47.832 129.537 48.072C129.953 48.296 130.417 48.408 130.929 48.408C131.441 48.408 131.897 48.296 132.297 48.072C132.697 47.832 133.009 47.504 133.233 47.088C133.457 46.672 133.569 46.176 133.569 45.6V37.944H136.713V51H133.737V48.432L134.001 48.888C133.697 49.688 133.193 50.288 132.489 50.688C131.801 51.088 130.993 51.288 130.065 51.288ZM139.636 55.8V37.944H142.588V40.536L142.3 39.888C142.748 39.184 143.356 38.64 144.124 38.256C144.892 37.856 145.78 37.656 146.788 37.656C148.02 37.656 149.132 37.96 150.124 38.568C151.116 39.176 151.9 39.992 152.476 41.016C153.068 42.04 153.364 43.192 153.364 44.472C153.364 45.736 153.076 46.888 152.5 47.928C151.924 48.968 151.14 49.792 150.148 50.4C149.156 50.992 148.028 51.288 146.764 51.288C145.82 51.288 144.948 51.104 144.148 50.736C143.364 50.352 142.74 49.808 142.276 49.104L142.78 48.48V55.8H139.636ZM146.404 48.408C147.124 48.408 147.764 48.24 148.324 47.904C148.884 47.568 149.316 47.104 149.62 46.512C149.94 45.92 150.1 45.24 150.1 44.472C150.1 43.704 149.94 43.032 149.62 42.456C149.316 41.864 148.884 41.4 148.324 41.064C147.764 40.712 147.124 40.536 146.404 40.536C145.716 40.536 145.092 40.704 144.532 41.04C143.988 41.376 143.556 41.848 143.236 42.456C142.932 43.048 142.78 43.72 142.78 44.472C142.78 45.24 142.932 45.92 143.236 46.512C143.556 47.104 143.988 47.568 144.532 47.904C145.092 48.24 145.716 48.408 146.404 48.408ZM161.833 51.288C160.569 51.288 159.441 50.992 158.449 50.4C157.457 49.792 156.673 48.968 156.097 47.928C155.521 46.888 155.233 45.736 155.233 44.472C155.233 43.192 155.521 42.04 156.097 41.016C156.673 39.992 157.457 39.176 158.449 38.568C159.457 37.96 160.577 37.656 161.809 37.656C162.801 37.656 163.681 37.856 164.449 38.256C165.233 38.64 165.849 39.184 166.297 39.888L165.817 40.536V32.832H168.961V51H165.985V48.48L166.321 49.104C165.873 49.808 165.249 50.352 164.449 50.736C163.649 51.104 162.777 51.288 161.833 51.288ZM162.169 48.408C162.889 48.408 163.521 48.24 164.065 47.904C164.609 47.568 165.033 47.104 165.337 46.512C165.657 45.92 165.817 45.24 165.817 44.472C165.817 43.72 165.657 43.048 165.337 42.456C165.033 41.848 164.609 41.376 164.065 41.04C163.521 40.704 162.889 40.536 162.169 40.536C161.465 40.536 160.833 40.712 160.273 41.064C159.713 41.4 159.273 41.864 158.953 42.456C158.649 43.032 158.497 43.704 158.497 44.472C158.497 45.24 158.649 45.92 158.953 46.512C159.273 47.104 159.713 47.568 160.273 47.904C160.833 48.24 161.465 48.408 162.169 48.408ZM175.846 51.288C174.934 51.288 174.142 51.136 173.47 50.832C172.798 50.528 172.278 50.096 171.91 49.536C171.542 48.96 171.358 48.296 171.358 47.544C171.358 46.824 171.518 46.184 171.838 45.624C172.158 45.048 172.654 44.568 173.326 44.184C173.998 43.8 174.846 43.528 175.87 43.368L180.142 42.672V45.072L176.47 45.696C175.846 45.808 175.382 46.008 175.078 46.296C174.774 46.584 174.622 46.96 174.622 47.424C174.622 47.872 174.79 48.232 175.126 48.504C175.478 48.76 175.91 48.888 176.422 48.888C177.078 48.888 177.654 48.752 178.15 48.48C178.662 48.192 179.054 47.8 179.326 47.304C179.614 46.808 179.758 46.264 179.758 45.672V42.312C179.758 41.752 179.534 41.288 179.086 40.92C178.654 40.536 178.078 40.344 177.358 40.344C176.686 40.344 176.086 40.528 175.558 40.896C175.046 41.248 174.67 41.72 174.43 42.312L171.862 41.064C172.118 40.376 172.518 39.784 173.062 39.288C173.622 38.776 174.278 38.376 175.03 38.088C175.782 37.8 176.598 37.656 177.478 37.656C178.55 37.656 179.494 37.856 180.31 38.256C181.126 38.64 181.758 39.184 182.206 39.888C182.67 40.576 182.902 41.384 182.902 42.312V51H179.926V48.768L180.598 48.72C180.262 49.28 179.862 49.752 179.398 50.136C178.934 50.504 178.406 50.792 177.814 51C177.222 51.192 176.566 51.288 175.846 51.288ZM191.525 51.144C190.053 51.144 188.909 50.744 188.093 49.944C187.293 49.128 186.893 47.984 186.893 46.512V40.752H184.637V37.944H184.877C185.517 37.944 186.013 37.776 186.365 37.44C186.717 37.104 186.893 36.616 186.893 35.976V34.968H190.037V37.944H193.037V40.752H190.037V46.344C190.037 46.776 190.109 47.144 190.253 47.448C190.413 47.752 190.653 47.984 190.973 48.144C191.309 48.304 191.733 48.384 192.245 48.384C192.357 48.384 192.485 48.376 192.629 48.36C192.789 48.344 192.941 48.328 193.085 48.312V51C192.861 51.032 192.605 51.064 192.317 51.096C192.029 51.128 191.765 51.144 191.525 51.144ZM201.562 51.288C200.218 51.288 199.042 50.984 198.034 50.376C197.026 49.768 196.242 48.944 195.682 47.904C195.122 46.864 194.842 45.712 194.842 44.448C194.842 43.136 195.122 41.976 195.682 40.968C196.258 39.944 197.034 39.136 198.01 38.544C199.002 37.952 200.106 37.656 201.322 37.656C202.346 37.656 203.242 37.824 204.01 38.16C204.794 38.496 205.458 38.96 206.002 39.552C206.546 40.144 206.962 40.824 207.25 41.592C207.538 42.344 207.682 43.16 207.682 44.04C207.682 44.264 207.666 44.496 207.634 44.736C207.618 44.976 207.578 45.184 207.514 45.36H197.434V42.96H205.738L204.25 44.088C204.394 43.352 204.354 42.696 204.13 42.12C203.922 41.544 203.57 41.088 203.074 40.752C202.594 40.416 202.01 40.248 201.322 40.248C200.666 40.248 200.082 40.416 199.57 40.752C199.058 41.072 198.666 41.552 198.394 42.192C198.138 42.816 198.042 43.576 198.106 44.472C198.042 45.272 198.146 45.984 198.418 46.608C198.706 47.216 199.122 47.688 199.666 48.024C200.226 48.36 200.866 48.528 201.586 48.528C202.306 48.528 202.914 48.376 203.41 48.072C203.922 47.768 204.322 47.36 204.61 46.848L207.154 48.096C206.898 48.72 206.498 49.272 205.954 49.752C205.41 50.232 204.762 50.608 204.01 50.88C203.274 51.152 202.458 51.288 201.562 51.288ZM215.034 51.288C213.642 51.288 212.426 50.96 211.386 50.304C210.362 49.632 209.658 48.728 209.274 47.592L211.626 46.464C211.962 47.2 212.426 47.776 213.018 48.192C213.626 48.608 214.298 48.816 215.034 48.816C215.61 48.816 216.066 48.688 216.402 48.432C216.738 48.176 216.906 47.84 216.906 47.424C216.906 47.168 216.834 46.96 216.69 46.8C216.562 46.624 216.378 46.48 216.138 46.368C215.914 46.24 215.666 46.136 215.394 46.056L213.258 45.456C212.154 45.136 211.314 44.648 210.738 43.992C210.178 43.336 209.898 42.56 209.898 41.664C209.898 40.864 210.098 40.168 210.498 39.576C210.914 38.968 211.482 38.496 212.202 38.16C212.938 37.824 213.778 37.656 214.722 37.656C215.954 37.656 217.042 37.952 217.986 38.544C218.93 39.136 219.602 39.968 220.002 41.04L217.602 42.168C217.378 41.576 217.002 41.104 216.474 40.752C215.946 40.4 215.354 40.224 214.698 40.224C214.17 40.224 213.754 40.344 213.45 40.584C213.146 40.824 212.994 41.136 212.994 41.52C212.994 41.76 213.058 41.968 213.186 42.144C213.314 42.32 213.49 42.464 213.714 42.576C213.954 42.688 214.226 42.792 214.53 42.888L216.618 43.512C217.69 43.832 218.514 44.312 219.09 44.952C219.682 45.592 219.978 46.376 219.978 47.304C219.978 48.088 219.77 48.784 219.354 49.392C218.938 49.984 218.362 50.448 217.626 50.784C216.89 51.12 216.026 51.288 215.034 51.288ZM32.12 81.288C31.112 81.288 30.232 81.064 29.48 80.616C28.744 80.168 28.176 79.544 27.776 78.744C27.392 77.944 27.2 77.008 27.2 75.936V67.944H30.344V75.672C30.344 76.216 30.448 76.696 30.656 77.112C30.88 77.512 31.192 77.832 31.592 78.072C32.008 78.296 32.472 78.408 32.984 78.408C33.496 78.408 33.952 78.296 34.352 78.072C34.752 77.832 35.064 77.504 35.288 77.088C35.512 76.672 35.624 76.176 35.624 75.6V67.944H38.768V81H35.792V78.432L36.056 78.888C35.752 79.688 35.248 80.288 34.544 80.688C33.856 81.088 33.048 81.288 32.12 81.288ZM41.6906 81V67.944H44.6426V70.512L44.4026 70.056C44.7066 69.272 45.2026 68.68 45.8906 68.28C46.5946 67.864 47.4106 67.656 48.3386 67.656C49.2986 67.656 50.1466 67.864 50.8826 68.28C51.6346 68.696 52.2186 69.28 52.6346 70.032C53.0506 70.768 53.2586 71.624 53.2586 72.6V81H50.1146V73.344C50.1146 72.768 50.0026 72.272 49.7786 71.856C49.5546 71.44 49.2426 71.12 48.8426 70.896C48.4586 70.656 48.0026 70.536 47.4746 70.536C46.9626 70.536 46.5066 70.656 46.1066 70.896C45.7066 71.12 45.3946 71.44 45.1706 71.856C44.9466 72.272 44.8346 72.768 44.8346 73.344V81H41.6906ZM61.9891 81.288C60.7251 81.288 59.5971 80.992 58.6051 80.4C57.6131 79.792 56.8291 78.968 56.2531 77.928C55.6771 76.888 55.3891 75.736 55.3891 74.472C55.3891 73.192 55.6771 72.04 56.2531 71.016C56.8291 69.992 57.6131 69.176 58.6051 68.568C59.6131 67.96 60.7331 67.656 61.9651 67.656C62.9571 67.656 63.8371 67.856 64.6051 68.256C65.3891 68.64 66.0051 69.184 66.4531 69.888L65.9731 70.536V62.832H69.1171V81H66.1411V78.48L66.4771 79.104C66.0291 79.808 65.4051 80.352 64.6051 80.736C63.8051 81.104 62.9331 81.288 61.9891 81.288ZM62.3251 78.408C63.0451 78.408 63.6771 78.24 64.2211 77.904C64.7651 77.568 65.1891 77.104 65.4931 76.512C65.8131 75.92 65.9731 75.24 65.9731 74.472C65.9731 73.72 65.8131 73.048 65.4931 72.456C65.1891 71.848 64.7651 71.376 64.2211 71.04C63.6771 70.704 63.0451 70.536 62.3251 70.536C61.6211 70.536 60.9891 70.712 60.4291 71.064C59.8691 71.4 59.4291 71.864 59.1091 72.456C58.8051 73.032 58.6531 73.704 58.6531 74.472C58.6531 75.24 58.8051 75.92 59.1091 76.512C59.4291 77.104 59.8691 77.568 60.4291 77.904C60.9891 78.24 61.6211 78.408 62.3251 78.408ZM78.2341 81.288C76.8901 81.288 75.7141 80.984 74.7061 80.376C73.6981 79.768 72.9141 78.944 72.3541 77.904C71.7941 76.864 71.5141 75.712 71.5141 74.448C71.5141 73.136 71.7941 71.976 72.3541 70.968C72.9301 69.944 73.7061 69.136 74.6821 68.544C75.6741 67.952 76.7781 67.656 77.9941 67.656C79.0181 67.656 79.9141 67.824 80.6821 68.16C81.4661 68.496 82.1301 68.96 82.6741 69.552C83.2181 70.144 83.6341 70.824 83.9221 71.592C84.2101 72.344 84.3541 73.16 84.3541 74.04C84.3541 74.264 84.3381 74.496 84.3061 74.736C84.2901 74.976 84.2501 75.184 84.1861 75.36H74.1061V72.96H82.4101L80.9221 74.088C81.0661 73.352 81.0261 72.696 80.8021 72.12C80.5941 71.544 80.2421 71.088 79.7461 70.752C79.2661 70.416 78.6821 70.248 77.9941 70.248C77.3381 70.248 76.7541 70.416 76.2421 70.752C75.7301 71.072 75.3381 71.552 75.0661 72.192C74.8101 72.816 74.7141 73.576 74.7781 74.472C74.7141 75.272 74.8181 75.984 75.0901 76.608C75.3781 77.216 75.7941 77.688 76.3381 78.024C76.8981 78.36 77.5381 78.528 78.2581 78.528C78.9781 78.528 79.5861 78.376 80.0821 78.072C80.5941 77.768 80.9941 77.36 81.2821 76.848L83.8261 78.096C83.5701 78.72 83.1701 79.272 82.6261 79.752C82.0821 80.232 81.4341 80.608 80.6821 80.88C79.9461 81.152 79.1301 81.288 78.2341 81.288ZM86.7374 81V67.944H89.6894V70.848L89.4494 70.416C89.7534 69.44 90.2254 68.76 90.8654 68.376C91.5214 67.992 92.3054 67.8 93.2174 67.8H93.9854V70.584H92.8574C91.9614 70.584 91.2414 70.864 90.6974 71.424C90.1534 71.968 89.8814 72.736 89.8814 73.728V81H86.7374ZM99.002 81L94.514 67.944H97.826L101.114 77.856L99.962 77.832L103.466 67.944H106.25L109.73 77.832L108.578 77.856L111.866 67.944H115.178L110.69 81H107.882L104.33 70.656H105.386L101.786 81H99.002ZM120.393 81.288C119.481 81.288 118.689 81.136 118.017 80.832C117.345 80.528 116.825 80.096 116.457 79.536C116.089 78.96 115.905 78.296 115.905 77.544C115.905 76.824 116.065 76.184 116.385 75.624C116.705 75.048 117.201 74.568 117.873 74.184C118.545 73.8 119.393 73.528 120.417 73.368L124.689 72.672V75.072L121.017 75.696C120.393 75.808 119.929 76.008 119.625 76.296C119.321 76.584 119.169 76.96 119.169 77.424C119.169 77.872 119.337 78.232 119.673 78.504C120.025 78.76 120.457 78.888 120.969 78.888C121.625 78.888 122.201 78.752 122.697 78.48C123.209 78.192 123.601 77.8 123.873 77.304C124.161 76.808 124.305 76.264 124.305 75.672V72.312C124.305 71.752 124.081 71.288 123.633 70.92C123.201 70.536 122.625 70.344 121.905 70.344C121.233 70.344 120.633 70.528 120.105 70.896C119.593 71.248 119.217 71.72 118.977 72.312L116.409 71.064C116.665 70.376 117.065 69.784 117.609 69.288C118.169 68.776 118.825 68.376 119.577 68.088C120.329 67.8 121.145 67.656 122.025 67.656C123.097 67.656 124.041 67.856 124.857 68.256C125.673 68.64 126.305 69.184 126.753 69.888C127.217 70.576 127.449 71.384 127.449 72.312V81H124.473V78.768L125.145 78.72C124.809 79.28 124.409 79.752 123.945 80.136C123.481 80.504 122.953 80.792 122.361 81C121.769 81.192 121.113 81.288 120.393 81.288ZM131.939 86.28C131.587 86.28 131.243 86.248 130.907 86.184C130.571 86.136 130.267 86.04 129.995 85.896V83.28C130.203 83.328 130.451 83.376 130.739 83.424C131.043 83.472 131.323 83.496 131.579 83.496C132.299 83.496 132.819 83.328 133.139 82.992C133.475 82.672 133.771 82.24 134.027 81.696L134.891 79.68L134.843 82.32L129.155 67.944H132.539L136.523 78.552H135.323L139.283 67.944H142.691L137.003 82.32C136.667 83.152 136.259 83.864 135.779 84.456C135.299 85.048 134.739 85.496 134.099 85.8C133.475 86.12 132.755 86.28 131.939 86.28ZM146.025 75.576L145.809 63.12H149.001L148.785 75.576H146.025ZM145.809 81V77.64H149.001V81H145.809Z" fill="url(#paint0_linear_2374_66)"/>
<path d="M26.996 113V104.06H32.816V105.14H28.172V107.972H32.576V109.052H28.172V111.92H32.816V113H26.996ZM36.0373 113.144C35.6133 113.144 35.2373 113.068 34.9093 112.916C34.5893 112.756 34.3373 112.54 34.1533 112.268C33.9693 111.988 33.8773 111.668 33.8773 111.308C33.8773 110.964 33.9493 110.656 34.0933 110.384C34.2453 110.104 34.4773 109.868 34.7893 109.676C35.1093 109.484 35.5093 109.348 35.9893 109.268L38.3893 108.872V109.808L36.2413 110.168C35.8253 110.24 35.5213 110.372 35.3293 110.564C35.1453 110.756 35.0533 110.992 35.0533 111.272C35.0533 111.536 35.1573 111.756 35.3653 111.932C35.5813 112.108 35.8493 112.196 36.1693 112.196C36.5773 112.196 36.9293 112.112 37.2253 111.944C37.5293 111.768 37.7653 111.532 37.9333 111.236C38.1093 110.94 38.1973 110.612 38.1973 110.252V108.608C38.1973 108.256 38.0653 107.972 37.8013 107.756C37.5453 107.532 37.2053 107.42 36.7813 107.42C36.4133 107.42 36.0853 107.516 35.7973 107.708C35.5173 107.892 35.3093 108.14 35.1733 108.452L34.2013 107.948C34.3213 107.652 34.5133 107.388 34.7773 107.156C35.0413 106.916 35.3493 106.728 35.7013 106.592C36.0533 106.456 36.4213 106.388 36.8053 106.388C37.3013 106.388 37.7373 106.484 38.1133 106.676C38.4893 106.86 38.7813 107.12 38.9893 107.456C39.2053 107.784 39.3133 108.168 39.3133 108.608V113H38.2213V111.776L38.4253 111.848C38.2893 112.104 38.1053 112.328 37.8733 112.52C37.6413 112.712 37.3693 112.864 37.0573 112.976C36.7453 113.088 36.4053 113.144 36.0373 113.144ZM41.0437 113V106.532H42.1357V107.72L42.0157 107.552C42.1677 107.184 42.3997 106.912 42.7117 106.736C43.0237 106.552 43.4037 106.46 43.8517 106.46H44.2477V107.516H43.6837C43.2277 107.516 42.8597 107.66 42.5797 107.948C42.2997 108.228 42.1597 108.628 42.1597 109.148V113H41.0437ZM45.239 113V106.532H46.331V107.792L46.151 107.684C46.311 107.276 46.567 106.96 46.919 106.736C47.279 106.504 47.699 106.388 48.179 106.388C48.643 106.388 49.055 106.492 49.415 106.7C49.783 106.908 50.071 107.196 50.279 107.564C50.495 107.932 50.603 108.348 50.603 108.812V113H49.475V109.172C49.475 108.812 49.411 108.508 49.283 108.26C49.155 108.012 48.971 107.82 48.731 107.684C48.499 107.54 48.231 107.468 47.927 107.468C47.623 107.468 47.351 107.54 47.111 107.684C46.879 107.82 46.695 108.016 46.559 108.272C46.423 108.52 46.355 108.82 46.355 109.172V113H45.239ZM56.1702 113.144C55.7462 113.144 55.3702 113.068 55.0422 112.916C54.7222 112.756 54.4702 112.54 54.2862 112.268C54.1022 111.988 54.0102 111.668 54.0102 111.308C54.0102 110.964 54.0822 110.656 54.2262 110.384C54.3782 110.104 54.6102 109.868 54.9222 109.676C55.2422 109.484 55.6422 109.348 56.1222 109.268L58.5222 108.872V109.808L56.3742 110.168C55.9582 110.24 55.6542 110.372 55.4622 110.564C55.2782 110.756 55.1862 110.992 55.1862 111.272C55.1862 111.536 55.2902 111.756 55.4982 111.932C55.7142 112.108 55.9822 112.196 56.3022 112.196C56.7102 112.196 57.0622 112.112 57.3582 111.944C57.6622 111.768 57.8982 111.532 58.0662 111.236C58.2422 110.94 58.3302 110.612 58.3302 110.252V108.608C58.3302 108.256 58.1982 107.972 57.9342 107.756C57.6782 107.532 57.3382 107.42 56.9142 107.42C56.5462 107.42 56.2182 107.516 55.9302 107.708C55.6502 107.892 55.4422 108.14 55.3062 108.452L54.3342 107.948C54.4542 107.652 54.6462 107.388 54.9102 107.156C55.1742 106.916 55.4822 106.728 55.8342 106.592C56.1862 106.456 56.5542 106.388 56.9382 106.388C57.4342 106.388 57.8702 106.484 58.2462 106.676C58.6222 106.86 58.9142 107.12 59.1222 107.456C59.3382 107.784 59.4462 108.168 59.4462 108.608V113H58.3542V111.776L58.5582 111.848C58.4222 112.104 58.2382 112.328 58.0062 112.52C57.7742 112.712 57.5022 112.864 57.1902 112.976C56.8782 113.088 56.5382 113.144 56.1702 113.144ZM61.1765 113V106.532H62.2925V113H61.1765ZM61.1765 105.5V104.06H62.2925V105.5H61.1765ZM64.0242 113V106.532H65.1162V107.72L64.9962 107.552C65.1482 107.184 65.3802 106.912 65.6922 106.736C66.0042 106.552 66.3842 106.46 66.8322 106.46H67.2282V107.516H66.6642C66.2082 107.516 65.8402 107.66 65.5602 107.948C65.2802 108.228 65.1402 108.628 65.1402 109.148V113H64.0242ZM71.1595 113.144C70.5515 113.144 70.0035 112.996 69.5155 112.7C69.0355 112.404 68.6555 112 68.3755 111.488C68.0955 110.976 67.9555 110.404 67.9555 109.772C67.9555 109.124 68.0955 108.548 68.3755 108.044C68.6555 107.532 69.0355 107.128 69.5155 106.832C70.0035 106.536 70.5515 106.388 71.1595 106.388C71.6955 106.388 72.1715 106.504 72.5875 106.736C73.0035 106.96 73.3315 107.264 73.5715 107.648L73.3915 107.924V103.916H74.5195V113H73.4275V111.62L73.5715 111.812C73.3475 112.236 73.0195 112.564 72.5875 112.796C72.1635 113.028 71.6875 113.144 71.1595 113.144ZM71.2555 112.064C71.6635 112.064 72.0275 111.964 72.3475 111.764C72.6675 111.564 72.9195 111.292 73.1035 110.948C73.2955 110.596 73.3915 110.204 73.3915 109.772C73.3915 109.332 73.2955 108.94 73.1035 108.596C72.9195 108.244 72.6675 107.968 72.3475 107.768C72.0275 107.568 71.6635 107.468 71.2555 107.468C70.8555 107.468 70.4915 107.572 70.1635 107.78C69.8435 107.98 69.5915 108.252 69.4075 108.596C69.2235 108.932 69.1315 109.324 69.1315 109.772C69.1315 110.204 69.2235 110.596 69.4075 110.948C69.5915 111.292 69.8435 111.564 70.1635 111.764C70.4835 111.964 70.8475 112.064 71.2555 112.064ZM76.2468 113V106.532H77.3388V107.72L77.2188 107.552C77.3708 107.184 77.6028 106.912 77.9148 106.736C78.2268 106.552 78.6068 106.46 79.0548 106.46H79.4508V107.516H78.8868C78.4308 107.516 78.0628 107.66 77.7828 107.948C77.5028 108.228 77.3628 108.628 77.3628 109.148V113H76.2468ZM83.5141 113.144C82.8901 113.144 82.3261 113 81.8221 112.712C81.3181 112.416 80.9181 112.012 80.6221 111.5C80.3261 110.988 80.1781 110.408 80.1781 109.76C80.1781 109.112 80.3221 108.536 80.6101 108.032C80.9061 107.528 81.3061 107.128 81.8101 106.832C82.3141 106.536 82.8821 106.388 83.5141 106.388C84.1381 106.388 84.7021 106.536 85.2061 106.832C85.7101 107.12 86.1061 107.516 86.3941 108.02C86.6901 108.524 86.8381 109.104 86.8381 109.76C86.8381 110.416 86.6861 111 86.3821 111.512C86.0781 112.016 85.6741 112.416 85.1701 112.712C84.6741 113 84.1221 113.144 83.5141 113.144ZM83.5141 112.064C83.9141 112.064 84.2741 111.964 84.5941 111.764C84.9221 111.564 85.1781 111.288 85.3621 110.936C85.5541 110.584 85.6501 110.192 85.6501 109.76C85.6501 109.32 85.5541 108.932 85.3621 108.596C85.1781 108.252 84.9221 107.98 84.5941 107.78C84.2741 107.572 83.9141 107.468 83.5141 107.468C83.1061 107.468 82.7381 107.572 82.4101 107.78C82.0901 107.98 81.8341 108.252 81.6421 108.596C81.4501 108.932 81.3541 109.32 81.3541 109.76C81.3541 110.192 81.4501 110.584 81.6421 110.936C81.8341 111.288 82.0901 111.564 82.4101 111.764C82.7381 111.964 83.1061 112.064 83.5141 112.064ZM88.2937 115.4V106.532H89.3857V107.924L89.2417 107.648C89.4817 107.264 89.8097 106.96 90.2257 106.736C90.6417 106.504 91.1177 106.388 91.6537 106.388C92.2617 106.388 92.8057 106.536 93.2857 106.832C93.7737 107.128 94.1577 107.532 94.4377 108.044C94.7177 108.548 94.8577 109.124 94.8577 109.772C94.8577 110.404 94.7177 110.976 94.4377 111.488C94.1577 112 93.7737 112.404 93.2857 112.7C92.8057 112.996 92.2577 113.144 91.6417 113.144C91.1217 113.144 90.6457 113.028 90.2137 112.796C89.7897 112.564 89.4617 112.236 89.2297 111.812L89.4097 111.62V115.4H88.2937ZM91.5577 112.064C91.9657 112.064 92.3297 111.964 92.6497 111.764C92.9697 111.564 93.2177 111.292 93.3937 110.948C93.5777 110.596 93.6697 110.204 93.6697 109.772C93.6697 109.324 93.5777 108.932 93.3937 108.596C93.2177 108.252 92.9697 107.98 92.6497 107.78C92.3297 107.572 91.9657 107.468 91.5577 107.468C91.1497 107.468 90.7817 107.568 90.4537 107.768C90.1337 107.968 89.8777 108.244 89.6857 108.596C89.5017 108.94 89.4097 109.332 89.4097 109.772C89.4097 110.204 89.5017 110.596 89.6857 110.948C89.8777 111.292 90.1337 111.564 90.4537 111.764C90.7817 111.964 91.1497 112.064 91.5577 112.064ZM98.637 113.144C97.989 113.144 97.425 112.984 96.945 112.664C96.465 112.344 96.125 111.912 95.925 111.368L96.813 110.936C96.997 111.32 97.249 111.624 97.569 111.848C97.889 112.072 98.245 112.184 98.637 112.184C98.989 112.184 99.281 112.1 99.513 111.932C99.745 111.764 99.861 111.544 99.861 111.272C99.861 111.08 99.805 110.928 99.693 110.816C99.589 110.696 99.461 110.604 99.309 110.54C99.157 110.468 99.017 110.416 98.889 110.384L97.917 110.108C97.333 109.94 96.905 109.7 96.633 109.388C96.369 109.076 96.237 108.712 96.237 108.296C96.237 107.912 96.333 107.58 96.525 107.3C96.725 107.012 96.993 106.788 97.329 106.628C97.673 106.468 98.057 106.388 98.481 106.388C99.049 106.388 99.557 106.532 100.005 106.82C100.461 107.108 100.785 107.512 100.977 108.032L100.065 108.452C99.921 108.116 99.705 107.852 99.417 107.66C99.129 107.46 98.805 107.36 98.445 107.36C98.117 107.36 97.857 107.444 97.665 107.612C97.473 107.772 97.377 107.976 97.377 108.224C97.377 108.408 97.425 108.56 97.521 108.68C97.617 108.792 97.733 108.88 97.869 108.944C98.005 109 98.137 109.048 98.265 109.088L99.321 109.4C99.849 109.552 100.257 109.788 100.545 110.108C100.841 110.428 100.989 110.812 100.989 111.26C100.989 111.62 100.889 111.944 100.689 112.232C100.489 112.52 100.213 112.744 99.861 112.904C99.509 113.064 99.101 113.144 98.637 113.144ZM102.642 114.668V114.128C102.89 114.064 103.078 113.94 103.206 113.756C103.334 113.572 103.406 113.32 103.422 113H102.882V111.56H104.046V112.58C104.046 113.156 103.926 113.62 103.686 113.972C103.454 114.324 103.106 114.556 102.642 114.668ZM111.11 113.144C110.478 113.144 109.914 112.996 109.418 112.7C108.93 112.404 108.546 112 108.266 111.488C107.986 110.976 107.846 110.4 107.846 109.76C107.846 109.112 107.986 108.536 108.266 108.032C108.546 107.528 108.93 107.128 109.418 106.832C109.914 106.536 110.478 106.388 111.11 106.388C111.534 106.388 111.93 106.464 112.298 106.616C112.666 106.768 112.99 106.972 113.27 107.228C113.55 107.484 113.754 107.784 113.882 108.128L112.886 108.608C112.734 108.272 112.502 108 112.19 107.792C111.878 107.576 111.518 107.468 111.11 107.468C110.718 107.468 110.362 107.568 110.042 107.768C109.73 107.968 109.482 108.24 109.298 108.584C109.114 108.928 109.022 109.324 109.022 109.772C109.022 110.204 109.114 110.596 109.298 110.948C109.482 111.292 109.73 111.564 110.042 111.764C110.362 111.964 110.718 112.064 111.11 112.064C111.518 112.064 111.878 111.96 112.19 111.752C112.502 111.536 112.734 111.252 112.886 110.9L113.882 111.404C113.754 111.74 113.55 112.04 113.27 112.304C112.99 112.56 112.666 112.764 112.298 112.916C111.93 113.068 111.534 113.144 111.11 113.144ZM118.413 113.144C117.789 113.144 117.225 113 116.721 112.712C116.217 112.416 115.817 112.012 115.521 111.5C115.225 110.988 115.077 110.408 115.077 109.76C115.077 109.112 115.221 108.536 115.509 108.032C115.805 107.528 116.205 107.128 116.709 106.832C117.213 106.536 117.781 106.388 118.413 106.388C119.037 106.388 119.601 106.536 120.105 106.832C120.609 107.12 121.005 107.516 121.293 108.02C121.589 108.524 121.737 109.104 121.737 109.76C121.737 110.416 121.585 111 121.281 111.512C120.977 112.016 120.573 112.416 120.069 112.712C119.573 113 119.021 113.144 118.413 113.144ZM118.413 112.064C118.813 112.064 119.173 111.964 119.493 111.764C119.821 111.564 120.077 111.288 120.261 110.936C120.453 110.584 120.549 110.192 120.549 109.76C120.549 109.32 120.453 108.932 120.261 108.596C120.077 108.252 119.821 107.98 119.493 107.78C119.173 107.572 118.813 107.468 118.413 107.468C118.005 107.468 117.637 107.572 117.309 107.78C116.989 107.98 116.733 108.252 116.541 108.596C116.349 108.932 116.253 109.32 116.253 109.76C116.253 110.192 116.349 110.584 116.541 110.936C116.733 111.288 116.989 111.564 117.309 111.764C117.637 111.964 118.005 112.064 118.413 112.064ZM123.192 113V106.532H124.284V107.852L124.128 107.648C124.288 107.24 124.544 106.928 124.896 106.712C125.248 106.496 125.644 106.388 126.084 106.388C126.588 106.388 127.04 106.528 127.44 106.808C127.848 107.088 128.128 107.456 128.28 107.912L127.968 107.924C128.136 107.42 128.42 107.04 128.82 106.784C129.22 106.52 129.664 106.388 130.152 106.388C130.6 106.388 131.004 106.492 131.364 106.7C131.732 106.908 132.024 107.196 132.24 107.564C132.456 107.932 132.564 108.348 132.564 108.812V113H131.436V109.172C131.436 108.812 131.372 108.508 131.244 108.26C131.116 108.012 130.94 107.82 130.716 107.684C130.5 107.54 130.244 107.468 129.948 107.468C129.66 107.468 129.4 107.54 129.168 107.684C128.944 107.82 128.764 108.016 128.628 108.272C128.5 108.52 128.436 108.82 128.436 109.172V113H127.308V109.172C127.308 108.812 127.244 108.508 127.116 108.26C126.988 108.012 126.812 107.82 126.588 107.684C126.372 107.54 126.116 107.468 125.82 107.468C125.532 107.468 125.272 107.54 125.04 107.684C124.816 107.82 124.636 108.016 124.5 108.272C124.372 108.52 124.308 108.82 124.308 109.172V113H123.192ZM134.149 115.4V106.532H135.241V107.924L135.097 107.648C135.337 107.264 135.665 106.96 136.081 106.736C136.497 106.504 136.973 106.388 137.509 106.388C138.117 106.388 138.661 106.536 139.141 106.832C139.629 107.128 140.013 107.532 140.293 108.044C140.573 108.548 140.713 109.124 140.713 109.772C140.713 110.404 140.573 110.976 140.293 111.488C140.013 112 139.629 112.404 139.141 112.7C138.661 112.996 138.113 113.144 137.497 113.144C136.977 113.144 136.501 113.028 136.069 112.796C135.645 112.564 135.317 112.236 135.085 111.812L135.265 111.62V115.4H134.149ZM137.413 112.064C137.821 112.064 138.185 111.964 138.505 111.764C138.825 111.564 139.073 111.292 139.249 110.948C139.433 110.596 139.525 110.204 139.525 109.772C139.525 109.324 139.433 108.932 139.249 108.596C139.073 108.252 138.825 107.98 138.505 107.78C138.185 107.572 137.821 107.468 137.413 107.468C137.005 107.468 136.637 107.568 136.309 107.768C135.989 107.968 135.733 108.244 135.541 108.596C135.357 108.94 135.265 109.332 135.265 109.772C135.265 110.204 135.357 110.596 135.541 110.948C135.733 111.292 135.989 111.564 136.309 111.764C136.637 111.964 137.005 112.064 137.413 112.064ZM145.153 113.144C144.529 113.144 143.973 112.996 143.485 112.7C142.997 112.404 142.613 112 142.333 111.488C142.053 110.968 141.913 110.388 141.913 109.748C141.913 109.1 142.049 108.524 142.321 108.02C142.601 107.516 142.977 107.12 143.449 106.832C143.929 106.536 144.465 106.388 145.057 106.388C145.537 106.388 145.961 106.476 146.329 106.652C146.705 106.82 147.021 107.052 147.277 107.348C147.541 107.636 147.741 107.968 147.877 108.344C148.021 108.712 148.092 109.096 148.092 109.496C148.092 109.584 148.085 109.684 148.069 109.796C148.061 109.9 148.049 110 148.033 110.096H142.729V109.136H147.385L146.857 109.568C146.929 109.152 146.889 108.78 146.737 108.452C146.585 108.124 146.361 107.864 146.065 107.672C145.769 107.48 145.433 107.384 145.057 107.384C144.681 107.384 144.337 107.48 144.025 107.672C143.713 107.864 143.469 108.14 143.293 108.5C143.125 108.852 143.057 109.272 143.089 109.76C143.057 110.232 143.129 110.648 143.305 111.008C143.489 111.36 143.745 111.636 144.073 111.836C144.409 112.028 144.773 112.124 145.165 112.124C145.597 112.124 145.961 112.024 146.257 111.824C146.553 111.624 146.793 111.368 146.977 111.056L147.913 111.536C147.785 111.832 147.585 112.104 147.312 112.352C147.049 112.592 146.733 112.784 146.365 112.928C146.005 113.072 145.601 113.144 145.153 113.144ZM152.176 113.072C151.544 113.072 151.056 112.892 150.712 112.532C150.376 112.172 150.208 111.664 150.208 111.008V107.6H149.032V106.532H149.272C149.56 106.532 149.788 106.444 149.956 106.268C150.124 106.092 150.208 105.86 150.208 105.572V105.044H151.324V106.532H152.776V107.6H151.324V110.972C151.324 111.188 151.356 111.376 151.42 111.536C151.492 111.696 151.608 111.824 151.768 111.92C151.928 112.008 152.14 112.052 152.404 112.052C152.46 112.052 152.528 112.048 152.608 112.04C152.696 112.032 152.776 112.024 152.848 112.016V113C152.744 113.024 152.628 113.04 152.5 113.048C152.372 113.064 152.264 113.072 152.176 113.072ZM157.106 113.144C156.482 113.144 155.926 112.996 155.438 112.7C154.95 112.404 154.566 112 154.286 111.488C154.006 110.968 153.866 110.388 153.866 109.748C153.866 109.1 154.002 108.524 154.274 108.02C154.554 107.516 154.93 107.12 155.402 106.832C155.882 106.536 156.418 106.388 157.01 106.388C157.49 106.388 157.914 106.476 158.282 106.652C158.658 106.82 158.974 107.052 159.23 107.348C159.494 107.636 159.694 107.968 159.83 108.344C159.974 108.712 160.046 109.096 160.046 109.496C160.046 109.584 160.038 109.684 160.022 109.796C160.014 109.9 160.002 110 159.986 110.096H154.682V109.136H159.338L158.81 109.568C158.882 109.152 158.842 108.78 158.69 108.452C158.538 108.124 158.314 107.864 158.018 107.672C157.722 107.48 157.386 107.384 157.01 107.384C156.634 107.384 156.29 107.48 155.978 107.672C155.666 107.864 155.422 108.14 155.246 108.5C155.078 108.852 155.01 109.272 155.042 109.76C155.01 110.232 155.082 110.648 155.258 111.008C155.442 111.36 155.698 111.636 156.026 111.836C156.362 112.028 156.726 112.124 157.118 112.124C157.55 112.124 157.914 112.024 158.21 111.824C158.506 111.624 158.746 111.368 158.93 111.056L159.866 111.536C159.738 111.832 159.538 112.104 159.266 112.352C159.002 112.592 158.686 112.784 158.318 112.928C157.958 113.072 157.554 113.144 157.106 113.144ZM163.575 113V106.532H164.691V113H163.575ZM163.575 105.5V104.06H164.691V105.5H163.575ZM166.423 113V106.532H167.515V107.792L167.335 107.684C167.495 107.276 167.751 106.96 168.103 106.736C168.463 106.504 168.883 106.388 169.363 106.388C169.827 106.388 170.239 106.492 170.599 106.7C170.967 106.908 171.255 107.196 171.463 107.564C171.679 107.932 171.787 108.348 171.787 108.812V113H170.659V109.172C170.659 108.812 170.595 108.508 170.467 108.26C170.339 108.012 170.155 107.82 169.915 107.684C169.683 107.54 169.415 107.468 169.111 107.468C168.807 107.468 168.535 107.54 168.295 107.684C168.063 107.82 167.879 108.016 167.743 108.272C167.607 108.52 167.539 108.82 167.539 109.172V113H166.423ZM178.458 113.144C177.826 113.144 177.262 112.996 176.766 112.7C176.278 112.404 175.894 112 175.614 111.488C175.334 110.976 175.194 110.4 175.194 109.76C175.194 109.112 175.334 108.536 175.614 108.032C175.894 107.528 176.278 107.128 176.766 106.832C177.262 106.536 177.826 106.388 178.458 106.388C178.882 106.388 179.278 106.464 179.646 106.616C180.014 106.768 180.338 106.972 180.618 107.228C180.898 107.484 181.102 107.784 181.23 108.128L180.234 108.608C180.082 108.272 179.85 108 179.538 107.792C179.226 107.576 178.866 107.468 178.458 107.468C178.066 107.468 177.71 107.568 177.39 107.768C177.078 107.968 176.83 108.24 176.646 108.584C176.462 108.928 176.37 109.324 176.37 109.772C176.37 110.204 176.462 110.596 176.646 110.948C176.83 111.292 177.078 111.564 177.39 111.764C177.71 111.964 178.066 112.064 178.458 112.064C178.866 112.064 179.226 111.96 179.538 111.752C179.85 111.536 180.082 111.252 180.234 110.9L181.23 111.404C181.102 111.74 180.898 112.04 180.618 112.304C180.338 112.56 180.014 112.764 179.646 112.916C179.278 113.068 178.882 113.144 178.458 113.144ZM185.76 113.144C185.136 113.144 184.572 113 184.068 112.712C183.564 112.416 183.164 112.012 182.868 111.5C182.572 110.988 182.424 110.408 182.424 109.76C182.424 109.112 182.568 108.536 182.856 108.032C183.152 107.528 183.552 107.128 184.056 106.832C184.56 106.536 185.128 106.388 185.76 106.388C186.384 106.388 186.948 106.536 187.452 106.832C187.956 107.12 188.352 107.516 188.64 108.02C188.936 108.524 189.084 109.104 189.084 109.76C189.084 110.416 188.932 111 188.628 111.512C188.324 112.016 187.92 112.416 187.416 112.712C186.92 113 186.368 113.144 185.76 113.144ZM185.76 112.064C186.16 112.064 186.52 111.964 186.84 111.764C187.168 111.564 187.424 111.288 187.608 110.936C187.8 110.584 187.896 110.192 187.896 109.76C187.896 109.32 187.8 108.932 187.608 108.596C187.424 108.252 187.168 107.98 186.84 107.78C186.52 107.572 186.16 107.468 185.76 107.468C185.352 107.468 184.984 107.572 184.656 107.78C184.336 107.98 184.08 108.252 183.888 108.596C183.696 108.932 183.6 109.32 183.6 109.76C183.6 110.192 183.696 110.584 183.888 110.936C184.08 111.288 184.336 111.564 184.656 111.764C184.984 111.964 185.352 112.064 185.76 112.064ZM190.54 113V106.532H191.632V107.792L191.452 107.684C191.612 107.276 191.868 106.96 192.22 106.736C192.58 106.504 193 106.388 193.48 106.388C193.944 106.388 194.356 106.492 194.716 106.7C195.084 106.908 195.372 107.196 195.58 107.564C195.796 107.932 195.904 108.348 195.904 108.812V113H194.776V109.172C194.776 108.812 194.712 108.508 194.584 108.26C194.456 108.012 194.272 107.82 194.032 107.684C193.8 107.54 193.532 107.468 193.228 107.468C192.924 107.468 192.652 107.54 192.412 107.684C192.18 107.82 191.996 108.016 191.86 108.272C191.724 108.52 191.656 108.82 191.656 109.172V113H190.54ZM200.129 113.072C199.497 113.072 199.009 112.892 198.665 112.532C198.329 112.172 198.161 111.664 198.161 111.008V107.6H196.985V106.532H197.225C197.513 106.532 197.741 106.444 197.909 106.268C198.077 106.092 198.161 105.86 198.161 105.572V105.044H199.277V106.532H200.729V107.6H199.277V110.972C199.277 111.188 199.309 111.376 199.373 111.536C199.445 111.696 199.561 111.824 199.721 111.92C199.881 112.008 200.093 112.052 200.357 112.052C200.413 112.052 200.481 112.048 200.561 112.04C200.649 112.032 200.729 112.024 200.801 112.016V113C200.697 113.024 200.581 113.04 200.453 113.048C200.325 113.064 200.217 113.072 200.129 113.072ZM205.059 113.144C204.435 113.144 203.879 112.996 203.391 112.7C202.903 112.404 202.519 112 202.239 111.488C201.959 110.968 201.819 110.388 201.819 109.748C201.819 109.1 201.955 108.524 202.227 108.02C202.507 107.516 202.883 107.12 203.355 106.832C203.835 106.536 204.371 106.388 204.963 106.388C205.443 106.388 205.867 106.476 206.235 106.652C206.611 106.82 206.927 107.052 207.183 107.348C207.447 107.636 207.647 107.968 207.783 108.344C207.927 108.712 207.999 109.096 207.999 109.496C207.999 109.584 207.991 109.684 207.975 109.796C207.967 109.9 207.955 110 207.939 110.096H202.635V109.136H207.291L206.763 109.568C206.835 109.152 206.795 108.78 206.643 108.452C206.491 108.124 206.267 107.864 205.971 107.672C205.675 107.48 205.339 107.384 204.963 107.384C204.587 107.384 204.243 107.48 203.931 107.672C203.619 107.864 203.375 108.14 203.199 108.5C203.031 108.852 202.963 109.272 202.995 109.76C202.963 110.232 203.035 110.648 203.211 111.008C203.395 111.36 203.651 111.636 203.979 111.836C204.315 112.028 204.679 112.124 205.071 112.124C205.503 112.124 205.867 112.024 206.163 111.824C206.459 111.624 206.699 111.368 206.883 111.056L207.819 111.536C207.691 111.832 207.491 112.104 207.219 112.352C206.955 112.592 206.639 112.784 206.271 112.928C205.911 113.072 205.507 113.144 205.059 113.144ZM211.77 113.144C211.122 113.144 210.558 112.984 210.078 112.664C209.598 112.344 209.258 111.912 209.058 111.368L209.946 110.936C210.13 111.32 210.382 111.624 210.702 111.848C211.022 112.072 211.378 112.184 211.77 112.184C212.122 112.184 212.414 112.1 212.646 111.932C212.878 111.764 212.994 111.544 212.994 111.272C212.994 111.08 212.938 110.928 212.826 110.816C212.722 110.696 212.594 110.604 212.442 110.54C212.29 110.468 212.15 110.416 212.022 110.384L211.05 110.108C210.466 109.94 210.038 109.7 209.766 109.388C209.502 109.076 209.37 108.712 209.37 108.296C209.37 107.912 209.466 107.58 209.658 107.3C209.858 107.012 210.126 106.788 210.462 106.628C210.806 106.468 211.19 106.388 211.614 106.388C212.182 106.388 212.69 106.532 213.138 106.82C213.594 107.108 213.918 107.512 214.11 108.032L213.198 108.452C213.054 108.116 212.838 107.852 212.55 107.66C212.262 107.46 211.938 107.36 211.578 107.36C211.25 107.36 210.99 107.444 210.798 107.612C210.606 107.772 210.51 107.976 210.51 108.224C210.51 108.408 210.558 108.56 210.654 108.68C210.75 108.792 210.866 108.88 211.002 108.944C211.138 109 211.27 109.048 211.398 109.088L212.454 109.4C212.982 109.552 213.39 109.788 213.678 110.108C213.974 110.428 214.122 110.812 214.122 111.26C214.122 111.62 214.022 111.944 213.822 112.232C213.622 112.52 213.346 112.744 212.994 112.904C212.642 113.064 212.234 113.144 211.77 113.144ZM218.211 113.072C217.579 113.072 217.091 112.892 216.747 112.532C216.411 112.172 216.243 111.664 216.243 111.008V107.6H215.067V106.532H215.307C215.595 106.532 215.823 106.444 215.991 106.268C216.159 106.092 216.243 105.86 216.243 105.572V105.044H217.359V106.532H218.811V107.6H217.359V110.972C217.359 111.188 217.391 111.376 217.455 111.536C217.527 111.696 217.643 111.824 217.803 111.92C217.963 112.008 218.175 112.052 218.439 112.052C218.495 112.052 218.563 112.048 218.643 112.04C218.731 112.032 218.811 112.024 218.883 112.016V113C218.779 113.024 218.663 113.04 218.535 113.048C218.407 113.064 218.299 113.072 218.211 113.072ZM222.657 113.144C222.009 113.144 221.445 112.984 220.965 112.664C220.485 112.344 220.145 111.912 219.945 111.368L220.833 110.936C221.017 111.32 221.269 111.624 221.589 111.848C221.909 112.072 222.265 112.184 222.657 112.184C223.009 112.184 223.301 112.1 223.533 111.932C223.765 111.764 223.881 111.544 223.881 111.272C223.881 111.08 223.825 110.928 223.713 110.816C223.609 110.696 223.481 110.604 223.329 110.54C223.177 110.468 223.037 110.416 222.909 110.384L221.937 110.108C221.353 109.94 220.925 109.7 220.653 109.388C220.389 109.076 220.257 108.712 220.257 108.296C220.257 107.912 220.353 107.58 220.545 107.3C220.745 107.012 221.013 106.788 221.349 106.628C221.693 106.468 222.077 106.388 222.501 106.388C223.069 106.388 223.577 106.532 224.025 106.82C224.481 107.108 224.805 107.512 224.997 108.032L224.085 108.452C223.941 108.116 223.725 107.852 223.437 107.66C223.149 107.46 222.825 107.36 222.465 107.36C222.137 107.36 221.877 107.444 221.685 107.612C221.493 107.772 221.397 107.976 221.397 108.224C221.397 108.408 221.445 108.56 221.541 108.68C221.637 108.792 221.753 108.88 221.889 108.944C222.025 109 222.157 109.048 222.285 109.088L223.341 109.4C223.869 109.552 224.277 109.788 224.565 110.108C224.861 110.428 225.009 110.812 225.009 111.26C225.009 111.62 224.909 111.944 224.709 112.232C224.509 112.52 224.233 112.744 223.881 112.904C223.529 113.064 223.121 113.144 222.657 113.144ZM226.661 114.668V114.128C226.909 114.064 227.097 113.94 227.225 113.756C227.353 113.572 227.425 113.32 227.441 113H226.901V111.56H228.065V112.58C228.065 113.156 227.945 113.62 227.705 113.972C227.473 114.324 227.125 114.556 226.661 114.668ZM234.026 113.144C233.602 113.144 233.226 113.068 232.898 112.916C232.578 112.756 232.326 112.54 232.142 112.268C231.958 111.988 231.866 111.668 231.866 111.308C231.866 110.964 231.938 110.656 232.082 110.384C232.234 110.104 232.466 109.868 232.778 109.676C233.098 109.484 233.498 109.348 233.978 109.268L236.378 108.872V109.808L234.23 110.168C233.814 110.24 233.51 110.372 233.318 110.564C233.134 110.756 233.042 110.992 233.042 111.272C233.042 111.536 233.146 111.756 233.354 111.932C233.57 112.108 233.838 112.196 234.158 112.196C234.566 112.196 234.918 112.112 235.214 111.944C235.518 111.768 235.754 111.532 235.922 111.236C236.098 110.94 236.186 110.612 236.186 110.252V108.608C236.186 108.256 236.054 107.972 235.79 107.756C235.534 107.532 235.194 107.42 234.77 107.42C234.402 107.42 234.074 107.516 233.786 107.708C233.506 107.892 233.298 108.14 233.162 108.452L232.19 107.948C232.31 107.652 232.502 107.388 232.766 107.156C233.03 106.916 233.338 106.728 233.69 106.592C234.042 106.456 234.41 106.388 234.794 106.388C235.29 106.388 235.726 106.484 236.102 106.676C236.478 106.86 236.77 107.12 236.978 107.456C237.194 107.784 237.302 108.168 237.302 108.608V113H236.21V111.776L236.414 111.848C236.278 112.104 236.094 112.328 235.862 112.52C235.63 112.712 235.358 112.864 235.046 112.976C234.734 113.088 234.394 113.144 234.026 113.144ZM239.032 113V106.532H240.124V107.792L239.944 107.684C240.104 107.276 240.36 106.96 240.712 106.736C241.072 106.504 241.492 106.388 241.972 106.388C242.436 106.388 242.848 106.492 243.208 106.7C243.576 106.908 243.864 107.196 244.072 107.564C244.288 107.932 244.396 108.348 244.396 108.812V113H243.268V109.172C243.268 108.812 243.204 108.508 243.076 108.26C242.948 108.012 242.764 107.82 242.524 107.684C242.292 107.54 242.024 107.468 241.72 107.468C241.416 107.468 241.144 107.54 240.904 107.684C240.672 107.82 240.488 108.016 240.352 108.272C240.216 108.52 240.148 108.82 240.148 109.172V113H239.032ZM248.933 113.144C248.325 113.144 247.777 112.996 247.289 112.7C246.809 112.404 246.429 112 246.149 111.488C245.869 110.976 245.729 110.404 245.729 109.772C245.729 109.124 245.869 108.548 246.149 108.044C246.429 107.532 246.809 107.128 247.289 106.832C247.777 106.536 248.325 106.388 248.933 106.388C249.469 106.388 249.945 106.504 250.361 106.736C250.777 106.96 251.105 107.264 251.345 107.648L251.165 107.924V103.916H252.293V113H251.201V111.62L251.345 111.812C251.121 112.236 250.793 112.564 250.361 112.796C249.937 113.028 249.461 113.144 248.933 113.144ZM249.029 112.064C249.437 112.064 249.801 111.964 250.121 111.764C250.441 111.564 250.693 111.292 250.877 110.948C251.069 110.596 251.165 110.204 251.165 109.772C251.165 109.332 251.069 108.94 250.877 108.596C250.693 108.244 250.441 107.968 250.121 107.768C249.801 107.568 249.437 107.468 249.029 107.468C248.629 107.468 248.265 107.572 247.937 107.78C247.617 107.98 247.365 108.252 247.181 108.596C246.997 108.932 246.905 109.324 246.905 109.772C246.905 110.204 246.997 110.596 247.181 110.948C247.365 111.292 247.617 111.564 247.937 111.764C248.257 111.964 248.621 112.064 249.029 112.064ZM259.07 113.144C258.446 113.144 257.89 112.996 257.402 112.7C256.914 112.404 256.53 112 256.25 111.488C255.97 110.968 255.83 110.388 255.83 109.748C255.83 109.1 255.966 108.524 256.238 108.02C256.518 107.516 256.894 107.12 257.366 106.832C257.846 106.536 258.382 106.388 258.974 106.388C259.454 106.388 259.878 106.476 260.246 106.652C260.622 106.82 260.938 107.052 261.194 107.348C261.458 107.636 261.658 107.968 261.794 108.344C261.938 108.712 262.01 109.096 262.01 109.496C262.01 109.584 262.002 109.684 261.986 109.796C261.978 109.9 261.966 110 261.95 110.096H256.646V109.136H261.302L260.774 109.568C260.846 109.152 260.806 108.78 260.654 108.452C260.502 108.124 260.278 107.864 259.982 107.672C259.686 107.48 259.35 107.384 258.974 107.384C258.598 107.384 258.254 107.48 257.942 107.672C257.63 107.864 257.386 108.14 257.21 108.5C257.042 108.852 256.974 109.272 257.006 109.76C256.974 110.232 257.046 110.648 257.222 111.008C257.406 111.36 257.662 111.636 257.99 111.836C258.326 112.028 258.69 112.124 259.082 112.124C259.514 112.124 259.878 112.024 260.174 111.824C260.47 111.624 260.71 111.368 260.894 111.056L261.83 111.536C261.702 111.832 261.502 112.104 261.23 112.352C260.966 112.592 260.65 112.784 260.282 112.928C259.922 113.072 259.518 113.144 259.07 113.144ZM265.28 113.144C264.856 113.144 264.48 113.068 264.152 112.916C263.832 112.756 263.58 112.54 263.396 112.268C263.212 111.988 263.12 111.668 263.12 111.308C263.12 110.964 263.192 110.656 263.336 110.384C263.488 110.104 263.72 109.868 264.032 109.676C264.352 109.484 264.752 109.348 265.232 109.268L267.632 108.872V109.808L265.484 110.168C265.068 110.24 264.764 110.372 264.572 110.564C264.388 110.756 264.296 110.992 264.296 111.272C264.296 111.536 264.4 111.756 264.608 111.932C264.824 112.108 265.092 112.196 265.412 112.196C265.82 112.196 266.172 112.112 266.468 111.944C266.772 111.768 267.008 111.532 267.176 111.236C267.352 110.94 267.44 110.612 267.44 110.252V108.608C267.44 108.256 267.308 107.972 267.044 107.756C266.788 107.532 266.448 107.42 266.024 107.42C265.656 107.42 265.328 107.516 265.04 107.708C264.76 107.892 264.552 108.14 264.416 108.452L263.444 107.948C263.564 107.652 263.756 107.388 264.02 107.156C264.284 106.916 264.592 106.728 264.944 106.592C265.296 106.456 265.664 106.388 266.048 106.388C266.544 106.388 266.98 106.484 267.356 106.676C267.732 106.86 268.024 107.12 268.232 107.456C268.448 107.784 268.556 108.168 268.556 108.608V113H267.464V111.776L267.668 111.848C267.532 112.104 267.348 112.328 267.116 112.52C266.884 112.712 266.612 112.864 266.3 112.976C265.988 113.088 265.648 113.144 265.28 113.144ZM270.286 113V106.532H271.378V107.72L271.258 107.552C271.41 107.184 271.642 106.912 271.954 106.736C272.266 106.552 272.646 106.46 273.094 106.46H273.49V107.516H272.926C272.47 107.516 272.102 107.66 271.822 107.948C271.542 108.228 271.402 108.628 271.402 109.148V113H270.286ZM274.481 113V106.532H275.573V107.792L275.393 107.684C275.553 107.276 275.809 106.96 276.161 106.736C276.521 106.504 276.941 106.388 277.421 106.388C277.885 106.388 278.297 106.492 278.657 106.7C279.025 106.908 279.313 107.196 279.521 107.564C279.737 107.932 279.845 108.348 279.845 108.812V113H278.717V109.172C278.717 108.812 278.653 108.508 278.525 108.26C278.397 108.012 278.213 107.82 277.973 107.684C277.741 107.54 277.473 107.468 277.169 107.468C276.865 107.468 276.593 107.54 276.353 107.684C276.121 107.82 275.937 108.016 275.801 108.272C275.665 108.52 275.597 108.82 275.597 109.172V113H274.481ZM285.412 113.144C284.988 113.144 284.612 113.068 284.284 112.916C283.964 112.756 283.712 112.54 283.528 112.268C283.344 111.988 283.252 111.668 283.252 111.308C283.252 110.964 283.324 110.656 283.468 110.384C283.62 110.104 283.852 109.868 284.164 109.676C284.484 109.484 284.884 109.348 285.364 109.268L287.764 108.872V109.808L285.616 110.168C285.2 110.24 284.896 110.372 284.704 110.564C284.52 110.756 284.428 110.992 284.428 111.272C284.428 111.536 284.532 111.756 284.74 111.932C284.956 112.108 285.224 112.196 285.544 112.196C285.952 112.196 286.304 112.112 286.6 111.944C286.904 111.768 287.14 111.532 287.308 111.236C287.484 110.94 287.572 110.612 287.572 110.252V108.608C287.572 108.256 287.44 107.972 287.176 107.756C286.92 107.532 286.58 107.42 286.156 107.42C285.788 107.42 285.46 107.516 285.172 107.708C284.892 107.892 284.684 108.14 284.548 108.452L283.576 107.948C283.696 107.652 283.888 107.388 284.152 107.156C284.416 106.916 284.724 106.728 285.076 106.592C285.428 106.456 285.796 106.388 286.18 106.388C286.676 106.388 287.112 106.484 287.488 106.676C287.864 106.86 288.156 107.12 288.364 107.456C288.58 107.784 288.688 108.168 288.688 108.608V113H287.596V111.776L287.8 111.848C287.664 112.104 287.48 112.328 287.248 112.52C287.016 112.712 286.744 112.864 286.432 112.976C286.12 113.088 285.78 113.144 285.412 113.144ZM292.735 113.144C292.087 113.144 291.523 112.984 291.043 112.664C290.563 112.344 290.223 111.912 290.023 111.368L290.911 110.936C291.095 111.32 291.347 111.624 291.667 111.848C291.987 112.072 292.343 112.184 292.735 112.184C293.087 112.184 293.379 112.1 293.611 111.932C293.843 111.764 293.959 111.544 293.959 111.272C293.959 111.08 293.903 110.928 293.791 110.816C293.687 110.696 293.559 110.604 293.407 110.54C293.255 110.468 293.115 110.416 292.987 110.384L292.015 110.108C291.431 109.94 291.003 109.7 290.731 109.388C290.467 109.076 290.335 108.712 290.335 108.296C290.335 107.912 290.431 107.58 290.623 107.3C290.823 107.012 291.091 106.788 291.427 106.628C291.771 106.468 292.155 106.388 292.579 106.388C293.147 106.388 293.655 106.532 294.103 106.82C294.559 107.108 294.883 107.512 295.075 108.032L294.163 108.452C294.019 108.116 293.803 107.852 293.515 107.66C293.227 107.46 292.903 107.36 292.543 107.36C292.215 107.36 291.955 107.444 291.763 107.612C291.571 107.772 291.475 107.976 291.475 108.224C291.475 108.408 291.523 108.56 291.619 108.68C291.715 108.792 291.831 108.88 291.967 108.944C292.103 109 292.235 109.048 292.363 109.088L293.419 109.4C293.947 109.552 294.355 109.788 294.643 110.108C294.939 110.428 295.087 110.812 295.087 111.26C295.087 111.62 294.987 111.944 294.787 112.232C294.587 112.52 294.311 112.744 293.959 112.904C293.607 113.064 293.199 113.144 292.735 113.144ZM298.97 115.64C298.826 115.64 298.682 115.628 298.538 115.604C298.394 115.58 298.258 115.54 298.13 115.484V114.488C298.218 114.504 298.326 114.52 298.454 114.536C298.59 114.56 298.722 114.572 298.85 114.572C299.226 114.572 299.51 114.488 299.702 114.32C299.902 114.16 300.09 113.88 300.266 113.48L300.674 112.508L300.65 113.48L297.89 106.532H299.102L301.25 112.052H300.89L303.026 106.532H304.262L301.346 113.768C301.21 114.112 301.034 114.424 300.818 114.704C300.61 114.992 300.354 115.22 300.05 115.388C299.746 115.556 299.386 115.64 298.97 115.64ZM308.209 113.144C307.585 113.144 307.021 113 306.517 112.712C306.013 112.416 305.613 112.012 305.317 111.5C305.021 110.988 304.873 110.408 304.873 109.76C304.873 109.112 305.017 108.536 305.305 108.032C305.601 107.528 306.001 107.128 306.505 106.832C307.009 106.536 307.577 106.388 308.209 106.388C308.833 106.388 309.397 106.536 309.901 106.832C310.405 107.12 310.801 107.516 311.089 108.02C311.385 108.524 311.533 109.104 311.533 109.76C311.533 110.416 311.381 111 311.077 111.512C310.773 112.016 310.369 112.416 309.865 112.712C309.369 113 308.817 113.144 308.209 113.144ZM308.209 112.064C308.609 112.064 308.969 111.964 309.289 111.764C309.617 111.564 309.873 111.288 310.057 110.936C310.249 110.584 310.345 110.192 310.345 109.76C310.345 109.32 310.249 108.932 310.057 108.596C309.873 108.252 309.617 107.98 309.289 107.78C308.969 107.572 308.609 107.468 308.209 107.468C307.801 107.468 307.433 107.572 307.105 107.78C306.785 107.98 306.529 108.252 306.337 108.596C306.145 108.932 306.049 109.32 306.049 109.76C306.049 110.192 306.145 110.584 306.337 110.936C306.529 111.288 306.785 111.564 307.105 111.764C307.433 111.964 307.801 112.064 308.209 112.064ZM315.281 113.144C314.817 113.144 314.397 113.036 314.021 112.82C313.653 112.604 313.365 112.304 313.157 111.92C312.957 111.528 312.857 111.08 312.857 110.576V106.532H313.973V110.456C313.973 110.776 314.037 111.056 314.165 111.296C314.301 111.536 314.485 111.724 314.717 111.86C314.957 111.996 315.229 112.064 315.533 112.064C315.837 112.064 316.105 111.996 316.337 111.86C316.577 111.724 316.761 111.528 316.889 111.272C317.025 111.016 317.093 110.712 317.093 110.36V106.532H318.221V113H317.129V111.74L317.309 111.848C317.157 112.256 316.897 112.576 316.529 112.808C316.169 113.032 315.753 113.144 315.281 113.144ZM26.864 128V118.916H27.98V128H26.864ZM32.6877 128.144C32.0637 128.144 31.5077 127.996 31.0197 127.7C30.5317 127.404 30.1477 127 29.8677 126.488C29.5877 125.968 29.4477 125.388 29.4477 124.748C29.4477 124.1 29.5837 123.524 29.8557 123.02C30.1357 122.516 30.5117 122.12 30.9837 121.832C31.4637 121.536 31.9997 121.388 32.5917 121.388C33.0717 121.388 33.4957 121.476 33.8637 121.652C34.2397 121.82 34.5557 122.052 34.8117 122.348C35.0757 122.636 35.2757 122.968 35.4117 123.344C35.5557 123.712 35.6277 124.096 35.6277 124.496C35.6277 124.584 35.6197 124.684 35.6037 124.796C35.5957 124.9 35.5837 125 35.5677 125.096H30.2637V124.136H34.9197L34.3917 124.568C34.4637 124.152 34.4237 123.78 34.2717 123.452C34.1197 123.124 33.8957 122.864 33.5997 122.672C33.3037 122.48 32.9677 122.384 32.5917 122.384C32.2157 122.384 31.8717 122.48 31.5597 122.672C31.2477 122.864 31.0037 123.14 30.8277 123.5C30.6597 123.852 30.5917 124.272 30.6237 124.76C30.5917 125.232 30.6637 125.648 30.8397 126.008C31.0237 126.36 31.2797 126.636 31.6077 126.836C31.9437 127.028 32.3077 127.124 32.6997 127.124C33.1317 127.124 33.4957 127.024 33.7917 126.824C34.0877 126.624 34.3277 126.368 34.5117 126.056L35.4477 126.536C35.3197 126.832 35.1197 127.104 34.8477 127.352C34.5837 127.592 34.2677 127.784 33.8997 127.928C33.5397 128.072 33.1357 128.144 32.6877 128.144ZM38.8967 128.144C38.4727 128.144 38.0967 128.068 37.7687 127.916C37.4487 127.756 37.1967 127.54 37.0127 127.268C36.8287 126.988 36.7367 126.668 36.7367 126.308C36.7367 125.964 36.8087 125.656 36.9527 125.384C37.1047 125.104 37.3367 124.868 37.6487 124.676C37.9687 124.484 38.3687 124.348 38.8487 124.268L41.2487 123.872V124.808L39.1007 125.168C38.6847 125.24 38.3807 125.372 38.1887 125.564C38.0047 125.756 37.9127 125.992 37.9127 126.272C37.9127 126.536 38.0167 126.756 38.2247 126.932C38.4407 127.108 38.7087 127.196 39.0287 127.196C39.4367 127.196 39.7887 127.112 40.0847 126.944C40.3887 126.768 40.6247 126.532 40.7927 126.236C40.9687 125.94 41.0567 125.612 41.0567 125.252V123.608C41.0567 123.256 40.9247 122.972 40.6607 122.756C40.4047 122.532 40.0647 122.42 39.6407 122.42C39.2727 122.42 38.9447 122.516 38.6567 122.708C38.3767 122.892 38.1687 123.14 38.0327 123.452L37.0607 122.948C37.1807 122.652 37.3727 122.388 37.6367 122.156C37.9007 121.916 38.2087 121.728 38.5607 121.592C38.9127 121.456 39.2807 121.388 39.6647 121.388C40.1607 121.388 40.5967 121.484 40.9727 121.676C41.3487 121.86 41.6407 122.12 41.8487 122.456C42.0647 122.784 42.1727 123.168 42.1727 123.608V128H41.0807V126.776L41.2847 126.848C41.1487 127.104 40.9647 127.328 40.7327 127.52C40.5007 127.712 40.2287 127.864 39.9167 127.976C39.6047 128.088 39.2647 128.144 38.8967 128.144ZM43.9031 128V121.532H44.9951V122.72L44.8751 122.552C45.0271 122.184 45.2591 121.912 45.5711 121.736C45.8831 121.552 46.2631 121.46 46.7111 121.46H47.1071V122.516H46.5431C46.0871 122.516 45.7191 122.66 45.4391 122.948C45.1591 123.228 45.0191 123.628 45.0191 124.148V128H43.9031ZM48.0984 128V121.532H49.1904V122.792L49.0104 122.684C49.1704 122.276 49.4264 121.96 49.7784 121.736C50.1384 121.504 50.5584 121.388 51.0384 121.388C51.5024 121.388 51.9144 121.492 52.2744 121.7C52.6424 121.908 52.9304 122.196 53.1384 122.564C53.3544 122.932 53.4624 123.348 53.4624 123.812V128H52.3344V124.172C52.3344 123.812 52.2704 123.508 52.1424 123.26C52.0144 123.012 51.8304 122.82 51.5904 122.684C51.3584 122.54 51.0904 122.468 50.7864 122.468C50.4824 122.468 50.2104 122.54 49.9704 122.684C49.7384 122.82 49.5544 123.016 49.4184 123.272C49.2824 123.52 49.2144 123.82 49.2144 124.172V128H48.0984ZM55.5513 125.384L55.4793 119.06H56.6553L56.5713 125.384H55.5513ZM55.4793 128V126.56H56.6553V128H55.4793Z" fill="url(#paint1_linear_2374_66)"/>
</g>
<defs>
<filter id="filter0_f_2374_66" x="-23" y="-216" width="411" height="411" filterUnits="userSpaceOnUse" color-interpolation-filters="sRGB">
<feFlood flood-opacity="0" result="BackgroundImageFix"/>
<feBlend mode="normal" in="SourceGraphic" in2="BackgroundImageFix" result="shape"/>
<feGaussianBlur stdDeviation="60" result="effect1_foregroundBlur_2374_66"/>
</filter>
<linearGradient id="paint0_linear_2374_66" x1="179" y1="86" x2="179" y2="12" gradientUnits="userSpaceOnUse">
<stop stop-color="white"/>
<stop offset="1" stop-color="#999999"/>
</linearGradient>
<linearGradient id="paint1_linear_2374_66" x1="220" y1="-6" x2="222.5" y2="142.5" gradientUnits="userSpaceOnUse">
<stop stop-color="#AE51FF"/>
<stop offset="1" stop-color="#C0C0C0"/>
</linearGradient>
<clipPath id="clip0_2374_66">
<rect width="365" height="160" rx="16" fill="white"/>
</clipPath>
</defs>
</svg>
